<?xml version="1.0" encoding="UTF-8"?>
<!DOCTYPE svg PUBLIC "-//W3C//DTD SVG 1.1//EN" "http://www.w3.org/Graphics/SVG/1.1/DTD/svg11.dtd">
<svg xmlns="http://www.w3.org/2000/svg" version="1.1" width="1563px" height="938px" style="shape-rendering:geometricPrecision; text-rendering:geometricPrecision; image-rendering:optimizeQuality; fill-rule:evenodd; clip-rule:evenodd" xmlns:xlink="http://www.w3.org/1999/xlink">
<g><path style="opacity:0.973" fill="#15a6c7" d="M 618.5,374.5 C 656.128,419.979 693.295,465.979 730,512.5C 730.5,468.835 730.667,425.168 730.5,381.5C 736.167,381.5 741.833,381.5 747.5,381.5C 747.667,441.834 747.5,502.168 747,562.5C 710.333,517.167 673.667,471.833 637,426.5C 636.5,469.165 636.333,511.832 636.5,554.5C 630.5,554.5 624.5,554.5 618.5,554.5C 618.5,494.5 618.5,434.5 618.5,374.5 Z"/></g>
<g><path style="opacity:0.978" fill="#15a7c8" d="M 1434.5,379.5 C 1463.55,376.573 1488.72,384.906 1510,404.5C 1510.67,405.5 1510.67,406.5 1510,407.5C 1506.54,411.553 1502.54,414.886 1498,417.5C 1467.86,392.044 1436.36,390.211 1403.5,412C 1376.4,436.552 1369.9,465.719 1384,499.5C 1405.23,534.352 1435.4,545.519 1474.5,533C 1483.01,528.581 1491.01,523.414 1498.5,517.5C 1502.83,521.333 1507.17,525.167 1511.5,529C 1482.41,556.418 1449.08,563.085 1411.5,549C 1370.31,527.445 1353.47,493.612 1361,447.5C 1371.64,409.689 1396.14,387.023 1434.5,379.5 Z"/></g>
<g><path style="opacity:0.915" fill="#15a7c8" d="M 122.5,381.5 C 163.92,379.529 193.587,397.029 211.5,434C 210.831,435.847 209.497,437.014 207.5,437.5C 187.852,398.008 156.185,381.842 112.5,389C 86.1323,396.209 67.799,412.376 57.5,437.5C 55.3043,437.435 53.3043,436.768 51.5,435.5C 65.4191,404.569 89.0857,386.569 122.5,381.5 Z"/></g>
<g><path style="opacity:0.989" fill="#15a7c8" d="M 280.5,381.5 C 286.167,381.5 291.833,381.5 297.5,381.5C 297.333,406.502 297.5,431.502 298,456.5C 322.862,431.972 347.362,407.139 371.5,382C 379.853,381.168 388.187,381.335 396.5,382.5C 368.5,410.833 340.5,439.167 312.5,467.5C 340.681,495.847 368.681,524.347 396.5,553C 388.167,553.667 379.833,553.667 371.5,553C 346.638,528.472 322.138,503.639 298,478.5C 297.5,503.498 297.333,528.498 297.5,553.5C 291.833,553.5 286.167,553.5 280.5,553.5C 280.5,496.167 280.5,438.833 280.5,381.5 Z"/></g>
<g><path style="opacity:0.931" fill="#14a6c8" d="M 1035.5,381.5 C 1071.17,381.5 1106.83,381.5 1142.5,381.5C 1142.5,387.5 1142.5,393.5 1142.5,399.5C 1127.5,399.5 1112.5,399.5 1097.5,399.5C 1097.5,450.833 1097.5,502.167 1097.5,553.5C 1091.83,553.5 1086.17,553.5 1080.5,553.5C 1080.5,502.167 1080.5,450.833 1080.5,399.5C 1065.5,399.5 1050.5,399.5 1035.5,399.5C 1035.5,393.5 1035.5,387.5 1035.5,381.5 Z"/></g>
<g><path style="opacity:0.961" fill="#14a7c7" d="M 489.5,381.5 C 495.5,381.5 501.5,381.5 507.5,381.5C 507.5,438.833 507.5,496.167 507.5,553.5C 501.5,553.5 495.5,553.5 489.5,553.5C 489.5,496.167 489.5,438.833 489.5,381.5 Z"/></g>
<g><path style="opacity:0.979" fill="#15a6c7" d="M 859.5,381.5 C 888.833,381.5 918.167,381.5 947.5,381.5C 947.5,387.5 947.5,393.5 947.5,399.5C 924.167,399.5 900.833,399.5 877.5,399.5C 877.5,419.167 877.5,438.833 877.5,458.5C 897.833,458.5 918.167,458.5 938.5,458.5C 938.5,464.5 938.5,470.5 938.5,476.5C 918.167,476.5 897.833,476.5 877.5,476.5C 877.5,496.5 877.5,516.5 877.5,536.5C 900.833,536.5 924.167,536.5 947.5,536.5C 947.5,542.167 947.5,547.833 947.5,553.5C 918.167,553.5 888.833,553.5 859.5,553.5C 859.5,496.167 859.5,438.833 859.5,381.5 Z"/></g>
<g><path style="opacity:0.953" fill="#14a6c8" d="M 1234.5,381.5 C 1240.5,381.5 1246.5,381.5 1252.5,381.5C 1252.5,438.833 1252.5,496.167 1252.5,553.5C 1246.5,553.5 1240.5,553.5 1234.5,553.5C 1234.5,496.167 1234.5,438.833 1234.5,381.5 Z"/></g>
<g><path style="opacity:0.9" fill="#15a7c8" d="M 122.5,402.5 C 150.597,400.119 172.431,410.453 188,433.5C 189.955,436.719 191.288,440.053 192,443.5C 190.915,444.293 189.748,444.96 188.5,445.5C 173.94,416.719 150.607,404.552 118.5,409C 98.5526,414.629 84.2193,426.795 75.5,445.5C 73.7697,444.974 72.4363,443.974 71.5,442.5C 81.4801,420.184 98.4801,406.85 122.5,402.5 Z"/></g>
<g><path style="opacity:0.912" fill="#15a7c7" d="M 123.5,423.5 C 146.78,420.968 163.447,430.135 173.5,451C 171.919,451.707 170.419,452.54 169,453.5C 156.545,430.458 138.045,423.625 113.5,433C 105.393,437.773 99.3932,444.44 95.5,453C 93.5804,453.215 91.9137,452.548 90.5,451C 96.8999,436.156 107.9,426.989 123.5,423.5 Z"/></g>
<g><path style="opacity:0.98" fill="#15a7c8" d="M 126.5,446.5 C 146.63,446.123 155.13,455.789 152,475.5C 145.642,488.092 135.808,491.925 122.5,487C 111.928,480.555 108.428,471.388 112,459.5C 115.162,453.164 119.996,448.831 126.5,446.5 Z"/></g>
<g><path style="opacity:0.904" fill="#15a7c8" d="M 93.5,482.5 C 96.4744,484.327 98.6411,486.993 100,490.5C 115.594,508.147 133.761,511.314 154.5,500C 160.465,495.041 165.298,489.208 169,482.5C 170.757,483.119 171.924,484.286 172.5,486C 159.775,508.914 140.775,516.581 115.5,509C 103.808,503.974 95.4745,495.641 90.5,484C 91.7375,483.768 92.7375,483.268 93.5,482.5 Z"/></g>
<g><path style="opacity:0.908" fill="#15a7c8" d="M 73.5,490.5 C 74.8221,490.33 75.9887,490.663 77,491.5C 88.0221,514.52 106.355,526.52 132,527.5C 158.136,526.434 176.803,514.101 188,490.5C 189.419,491.46 190.919,492.293 192.5,493C 180.449,518.349 160.282,531.849 132,533.5C 103.501,531.853 83.3348,518.187 71.5,492.5C 72.2427,491.818 72.9094,491.151 73.5,490.5 Z"/></g>
<g><path style="opacity:0.916" fill="#15a7c8" d="M 54.5,498.5 C 55.675,498.281 56.675,498.614 57.5,499.5C 78.6124,540.051 111.612,555.217 156.5,545C 179.203,536.627 195.869,521.627 206.5,500C 208.464,499.376 210.131,499.876 211.5,501.5C 192.501,540.006 161.501,557.173 118.5,553C 88.2038,547.106 66.3705,530.273 53,502.5C 52.516,500.807 53.016,499.473 54.5,498.5 Z"/></g>
</svg>
